<mxfile host="app.diagrams.net" agent="Mozilla/5.0 (Windows NT 10.0; Win64; x64) AppleWebKit/537.36 (KHTML, like Gecko) Chrome/134.0.0.0 Safari/537.36 Edg/134.0.0.0" version="26.2.3">
  <diagram name="第 1 页" id="su3d8cK3rKPIaIqzMbs0">
    <mxGraphModel dx="1420" dy="752" grid="0" gridSize="10" guides="1" tooltips="1" connect="1" arrows="1" fold="1" page="1" pageScale="1" pageWidth="827" pageHeight="1169" math="0" shadow="0">
      <root>
        <mxCell id="0" />
        <mxCell id="1" parent="0" />
        <mxCell id="KMdQFLrVWxtR7PllqkY--1" value="开始" style="whiteSpace=wrap;strokeWidth=2;" vertex="1" parent="1">
          <mxGeometry x="573" y="20" width="92" height="54" as="geometry" />
        </mxCell>
        <mxCell id="KMdQFLrVWxtR7PllqkY--2" value="沟通渠道" style="rhombus;strokeWidth=2;whiteSpace=wrap;" vertex="1" parent="1">
          <mxGeometry x="560" y="124" width="118" height="118" as="geometry" />
        </mxCell>
        <mxCell id="KMdQFLrVWxtR7PllqkY--3" value="标准话术沟通" style="whiteSpace=wrap;strokeWidth=2;" vertex="1" parent="1">
          <mxGeometry x="541" y="315" width="156" height="54" as="geometry" />
        </mxCell>
        <mxCell id="KMdQFLrVWxtR7PllqkY--4" value="是否接受邀约" style="rhombus;strokeWidth=2;whiteSpace=wrap;" vertex="1" parent="1">
          <mxGeometry x="544" y="419" width="150" height="150" as="geometry" />
        </mxCell>
        <mxCell id="KMdQFLrVWxtR7PllqkY--5" value="添加微信" style="whiteSpace=wrap;strokeWidth=2;" vertex="1" parent="1">
          <mxGeometry x="462" y="642" width="124" height="54" as="geometry" />
        </mxCell>
        <mxCell id="KMdQFLrVWxtR7PllqkY--6" value="记录拒绝原因" style="whiteSpace=wrap;strokeWidth=2;" vertex="1" parent="1">
          <mxGeometry x="636" y="642" width="156" height="54" as="geometry" />
        </mxCell>
        <mxCell id="KMdQFLrVWxtR7PllqkY--7" value="是否添加成功" style="rhombus;strokeWidth=2;whiteSpace=wrap;" vertex="1" parent="1">
          <mxGeometry x="449" y="746" width="150" height="150" as="geometry" />
        </mxCell>
        <mxCell id="KMdQFLrVWxtR7PllqkY--8" value="银豹系统操作" style="whiteSpace=wrap;strokeWidth=2;" vertex="1" parent="1">
          <mxGeometry x="343" y="969" width="156" height="54" as="geometry" />
        </mxCell>
        <mxCell id="KMdQFLrVWxtR7PllqkY--9" value="标记二次跟进" style="whiteSpace=wrap;strokeWidth=2;" vertex="1" parent="1">
          <mxGeometry x="549" y="969" width="156" height="54" as="geometry" />
        </mxCell>
        <mxCell id="KMdQFLrVWxtR7PllqkY--10" value="新客户?" style="rhombus;strokeWidth=2;whiteSpace=wrap;" vertex="1" parent="1">
          <mxGeometry x="368" y="1073" width="108" height="108" as="geometry" />
        </mxCell>
        <mxCell id="KMdQFLrVWxtR7PllqkY--11" value="新建会员档案" style="whiteSpace=wrap;strokeWidth=2;" vertex="1" parent="1">
          <mxGeometry x="145" y="1445" width="156" height="54" as="geometry" />
        </mxCell>
        <mxCell id="KMdQFLrVWxtR7PllqkY--12" value="有无归属" style="rhombus;strokeWidth=2;whiteSpace=wrap;" vertex="1" parent="1">
          <mxGeometry x="461" y="1254" width="118" height="118" as="geometry" />
        </mxCell>
        <mxCell id="KMdQFLrVWxtR7PllqkY--13" value="公海池领取" style="whiteSpace=wrap;strokeWidth=2;" vertex="1" parent="1">
          <mxGeometry x="351" y="1445" width="140" height="54" as="geometry" />
        </mxCell>
        <mxCell id="KMdQFLrVWxtR7PllqkY--14" value="转接专属顾问" style="whiteSpace=wrap;strokeWidth=2;" vertex="1" parent="1">
          <mxGeometry x="541" y="1445" width="156" height="54" as="geometry" />
        </mxCell>
        <mxCell id="KMdQFLrVWxtR7PllqkY--15" value="首次信息推送" style="whiteSpace=wrap;strokeWidth=2;" vertex="1" parent="1">
          <mxGeometry x="244" y="1549" width="156" height="54" as="geometry" />
        </mxCell>
        <mxCell id="KMdQFLrVWxtR7PllqkY--16" value="预约确认" style="rhombus;strokeWidth=2;whiteSpace=wrap;" vertex="1" parent="1">
          <mxGeometry x="263" y="1653" width="118" height="118" as="geometry" />
        </mxCell>
        <mxCell id="KMdQFLrVWxtR7PllqkY--17" value="系统录入+提醒设置" style="whiteSpace=wrap;strokeWidth=2;" vertex="1" parent="1">
          <mxGeometry x="109" y="1844" width="196" height="54" as="geometry" />
        </mxCell>
        <mxCell id="KMdQFLrVWxtR7PllqkY--18" value="3日内二次跟进" style="whiteSpace=wrap;strokeWidth=2;" vertex="1" parent="1">
          <mxGeometry x="355" y="1844" width="164" height="54" as="geometry" />
        </mxCell>
        <mxCell id="KMdQFLrVWxtR7PllqkY--19" value="到店接待准备" style="whiteSpace=wrap;strokeWidth=2;" vertex="1" parent="1">
          <mxGeometry x="129" y="1948" width="156" height="54" as="geometry" />
        </mxCell>
        <mxCell id="KMdQFLrVWxtR7PllqkY--20" value="是否到店" style="rhombus;strokeWidth=2;whiteSpace=wrap;" vertex="1" parent="1">
          <mxGeometry x="148" y="2052" width="118" height="118" as="geometry" />
        </mxCell>
        <mxCell id="KMdQFLrVWxtR7PllqkY--21" value="拍照核销+建档" style="whiteSpace=wrap;strokeWidth=2;" vertex="1" parent="1">
          <mxGeometry x="20" y="2243" width="164" height="54" as="geometry" />
        </mxCell>
        <mxCell id="KMdQFLrVWxtR7PllqkY--22" value="触发回访任务" style="whiteSpace=wrap;strokeWidth=2;" vertex="1" parent="1">
          <mxGeometry x="234" y="2243" width="156" height="54" as="geometry" />
        </mxCell>
        <mxCell id="KMdQFLrVWxtR7PllqkY--23" value="体验后跟进" style="whiteSpace=wrap;strokeWidth=2;" vertex="1" parent="1">
          <mxGeometry x="137" y="2347" width="140" height="54" as="geometry" />
        </mxCell>
        <mxCell id="KMdQFLrVWxtR7PllqkY--24" value="是否消费" style="rhombus;strokeWidth=2;whiteSpace=wrap;" vertex="1" parent="1">
          <mxGeometry x="148" y="2451" width="118" height="118" as="geometry" />
        </mxCell>
        <mxCell id="KMdQFLrVWxtR7PllqkY--25" value="效果追踪计划" style="whiteSpace=wrap;strokeWidth=2;" vertex="1" parent="1">
          <mxGeometry x="26" y="2642" width="156" height="54" as="geometry" />
        </mxCell>
        <mxCell id="KMdQFLrVWxtR7PllqkY--26" value="激活方案制定" style="whiteSpace=wrap;strokeWidth=2;" vertex="1" parent="1">
          <mxGeometry x="232" y="2642" width="156" height="54" as="geometry" />
        </mxCell>
        <mxCell id="KMdQFLrVWxtR7PllqkY--27" value="续费管理" style="whiteSpace=wrap;strokeWidth=2;" vertex="1" parent="1">
          <mxGeometry x="145" y="2746" width="124" height="54" as="geometry" />
        </mxCell>
        <mxCell id="KMdQFLrVWxtR7PllqkY--28" value="数据归档分析" style="whiteSpace=wrap;strokeWidth=2;" vertex="1" parent="1">
          <mxGeometry x="129" y="2850" width="156" height="54" as="geometry" />
        </mxCell>
        <mxCell id="KMdQFLrVWxtR7PllqkY--29" value="结束" style="whiteSpace=wrap;strokeWidth=2;" vertex="1" parent="1">
          <mxGeometry x="161" y="2954" width="92" height="54" as="geometry" />
        </mxCell>
        <mxCell id="KMdQFLrVWxtR7PllqkY--30" value="" style="curved=1;startArrow=none;endArrow=block;exitX=0.51;exitY=1;entryX=0.5;entryY=0;rounded=0;" edge="1" parent="1" source="KMdQFLrVWxtR7PllqkY--1" target="KMdQFLrVWxtR7PllqkY--2">
          <mxGeometry relative="1" as="geometry">
            <Array as="points" />
          </mxGeometry>
        </mxCell>
        <mxCell id="KMdQFLrVWxtR7PllqkY--31" value="电话" style="curved=1;startArrow=none;endArrow=block;exitX=0.36;exitY=1;entryX=0.43;entryY=0;rounded=0;" edge="1" parent="1" source="KMdQFLrVWxtR7PllqkY--2" target="KMdQFLrVWxtR7PllqkY--3">
          <mxGeometry relative="1" as="geometry">
            <Array as="points">
              <mxPoint x="591" y="279" />
            </Array>
          </mxGeometry>
        </mxCell>
        <mxCell id="KMdQFLrVWxtR7PllqkY--32" value="短信" style="curved=1;startArrow=none;endArrow=block;exitX=0.65;exitY=1;entryX=0.58;entryY=0;rounded=0;" edge="1" parent="1" source="KMdQFLrVWxtR7PllqkY--2" target="KMdQFLrVWxtR7PllqkY--3">
          <mxGeometry relative="1" as="geometry">
            <Array as="points">
              <mxPoint x="647" y="279" />
            </Array>
          </mxGeometry>
        </mxCell>
        <mxCell id="KMdQFLrVWxtR7PllqkY--33" value="" style="curved=1;startArrow=none;endArrow=block;exitX=0.5;exitY=1;entryX=0.5;entryY=0;rounded=0;" edge="1" parent="1" source="KMdQFLrVWxtR7PllqkY--3" target="KMdQFLrVWxtR7PllqkY--4">
          <mxGeometry relative="1" as="geometry">
            <Array as="points" />
          </mxGeometry>
        </mxCell>
        <mxCell id="KMdQFLrVWxtR7PllqkY--34" value="是" style="curved=1;startArrow=none;endArrow=block;exitX=0.08;exitY=1;entryX=0.5;entryY=0;rounded=0;" edge="1" parent="1" source="KMdQFLrVWxtR7PllqkY--4" target="KMdQFLrVWxtR7PllqkY--5">
          <mxGeometry relative="1" as="geometry">
            <Array as="points">
              <mxPoint x="524" y="606" />
            </Array>
          </mxGeometry>
        </mxCell>
        <mxCell id="KMdQFLrVWxtR7PllqkY--35" value="否" style="curved=1;startArrow=none;endArrow=block;exitX=0.93;exitY=1;entryX=0.5;entryY=0;rounded=0;" edge="1" parent="1" source="KMdQFLrVWxtR7PllqkY--4" target="KMdQFLrVWxtR7PllqkY--6">
          <mxGeometry relative="1" as="geometry">
            <Array as="points">
              <mxPoint x="714" y="606" />
            </Array>
          </mxGeometry>
        </mxCell>
        <mxCell id="KMdQFLrVWxtR7PllqkY--36" value="" style="curved=1;startArrow=none;endArrow=block;exitX=0.5;exitY=1;entryX=0.5;entryY=0;rounded=0;" edge="1" parent="1" source="KMdQFLrVWxtR7PllqkY--5" target="KMdQFLrVWxtR7PllqkY--7">
          <mxGeometry relative="1" as="geometry">
            <Array as="points" />
          </mxGeometry>
        </mxCell>
        <mxCell id="KMdQFLrVWxtR7PllqkY--37" value="成功" style="curved=1;startArrow=none;endArrow=block;exitX=0.04;exitY=1;entryX=0.5;entryY=0;rounded=0;" edge="1" parent="1" source="KMdQFLrVWxtR7PllqkY--7" target="KMdQFLrVWxtR7PllqkY--8">
          <mxGeometry relative="1" as="geometry">
            <Array as="points">
              <mxPoint x="421" y="933" />
            </Array>
          </mxGeometry>
        </mxCell>
        <mxCell id="KMdQFLrVWxtR7PllqkY--38" value="失败" style="curved=1;startArrow=none;endArrow=block;exitX=0.97;exitY=1;entryX=0.5;entryY=0;rounded=0;" edge="1" parent="1" source="KMdQFLrVWxtR7PllqkY--7" target="KMdQFLrVWxtR7PllqkY--9">
          <mxGeometry relative="1" as="geometry">
            <Array as="points">
              <mxPoint x="627" y="933" />
            </Array>
          </mxGeometry>
        </mxCell>
        <mxCell id="KMdQFLrVWxtR7PllqkY--39" value="" style="curved=1;startArrow=none;endArrow=block;exitX=0.5;exitY=1;entryX=0.5;entryY=0;rounded=0;" edge="1" parent="1" source="KMdQFLrVWxtR7PllqkY--8" target="KMdQFLrVWxtR7PllqkY--10">
          <mxGeometry relative="1" as="geometry">
            <Array as="points" />
          </mxGeometry>
        </mxCell>
        <mxCell id="KMdQFLrVWxtR7PllqkY--40" value="是" style="curved=1;startArrow=none;endArrow=block;exitX=0;exitY=0.73;entryX=0.5;entryY=0;rounded=0;" edge="1" parent="1" source="KMdQFLrVWxtR7PllqkY--10" target="KMdQFLrVWxtR7PllqkY--11">
          <mxGeometry relative="1" as="geometry">
            <Array as="points">
              <mxPoint x="223" y="1217" />
            </Array>
          </mxGeometry>
        </mxCell>
        <mxCell id="KMdQFLrVWxtR7PllqkY--41" value="否" style="curved=1;startArrow=none;endArrow=block;exitX=0.99;exitY=0.96;entryX=0.5;entryY=0;rounded=0;" edge="1" parent="1" source="KMdQFLrVWxtR7PllqkY--10" target="KMdQFLrVWxtR7PllqkY--12">
          <mxGeometry relative="1" as="geometry">
            <Array as="points">
              <mxPoint x="520" y="1217" />
            </Array>
          </mxGeometry>
        </mxCell>
        <mxCell id="KMdQFLrVWxtR7PllqkY--42" value="无归属" style="curved=1;startArrow=none;endArrow=block;exitX=0;exitY=0.98;entryX=0.5;entryY=0;rounded=0;" edge="1" parent="1" source="KMdQFLrVWxtR7PllqkY--12" target="KMdQFLrVWxtR7PllqkY--13">
          <mxGeometry relative="1" as="geometry">
            <Array as="points">
              <mxPoint x="421" y="1408" />
            </Array>
          </mxGeometry>
        </mxCell>
        <mxCell id="KMdQFLrVWxtR7PllqkY--43" value="有归属" style="curved=1;startArrow=none;endArrow=block;exitX=1;exitY=0.98;entryX=0.5;entryY=0;rounded=0;" edge="1" parent="1" source="KMdQFLrVWxtR7PllqkY--12" target="KMdQFLrVWxtR7PllqkY--14">
          <mxGeometry relative="1" as="geometry">
            <Array as="points">
              <mxPoint x="619" y="1408" />
            </Array>
          </mxGeometry>
        </mxCell>
        <mxCell id="KMdQFLrVWxtR7PllqkY--44" value="" style="curved=1;startArrow=none;endArrow=block;exitX=0.5;exitY=1;entryX=0.17;entryY=0;rounded=0;" edge="1" parent="1" source="KMdQFLrVWxtR7PllqkY--11" target="KMdQFLrVWxtR7PllqkY--15">
          <mxGeometry relative="1" as="geometry">
            <Array as="points">
              <mxPoint x="223" y="1524" />
            </Array>
          </mxGeometry>
        </mxCell>
        <mxCell id="KMdQFLrVWxtR7PllqkY--45" value="" style="curved=1;startArrow=none;endArrow=block;exitX=0.5;exitY=1;entryX=0.83;entryY=0;rounded=0;" edge="1" parent="1" source="KMdQFLrVWxtR7PllqkY--13" target="KMdQFLrVWxtR7PllqkY--15">
          <mxGeometry relative="1" as="geometry">
            <Array as="points">
              <mxPoint x="421" y="1524" />
            </Array>
          </mxGeometry>
        </mxCell>
        <mxCell id="KMdQFLrVWxtR7PllqkY--46" value="" style="curved=1;startArrow=none;endArrow=block;exitX=0.5;exitY=1;entryX=0.5;entryY=0;rounded=0;" edge="1" parent="1" source="KMdQFLrVWxtR7PllqkY--15" target="KMdQFLrVWxtR7PllqkY--16">
          <mxGeometry relative="1" as="geometry">
            <Array as="points" />
          </mxGeometry>
        </mxCell>
        <mxCell id="KMdQFLrVWxtR7PllqkY--47" value="成功" style="curved=1;startArrow=none;endArrow=block;exitX=0;exitY=0.91;entryX=0.5;entryY=0;rounded=0;" edge="1" parent="1" source="KMdQFLrVWxtR7PllqkY--16" target="KMdQFLrVWxtR7PllqkY--17">
          <mxGeometry relative="1" as="geometry">
            <Array as="points">
              <mxPoint x="207" y="1807" />
            </Array>
          </mxGeometry>
        </mxCell>
        <mxCell id="KMdQFLrVWxtR7PllqkY--48" value="未决" style="curved=1;startArrow=none;endArrow=block;exitX=1;exitY=0.91;entryX=0.5;entryY=0;rounded=0;" edge="1" parent="1" source="KMdQFLrVWxtR7PllqkY--16" target="KMdQFLrVWxtR7PllqkY--18">
          <mxGeometry relative="1" as="geometry">
            <Array as="points">
              <mxPoint x="438" y="1807" />
            </Array>
          </mxGeometry>
        </mxCell>
        <mxCell id="KMdQFLrVWxtR7PllqkY--49" value="" style="curved=1;startArrow=none;endArrow=block;exitX=0.5;exitY=1;entryX=0.5;entryY=0;rounded=0;" edge="1" parent="1" source="KMdQFLrVWxtR7PllqkY--17" target="KMdQFLrVWxtR7PllqkY--19">
          <mxGeometry relative="1" as="geometry">
            <Array as="points" />
          </mxGeometry>
        </mxCell>
        <mxCell id="KMdQFLrVWxtR7PllqkY--50" value="" style="curved=1;startArrow=none;endArrow=block;exitX=0.5;exitY=1;entryX=0.5;entryY=0;rounded=0;" edge="1" parent="1" source="KMdQFLrVWxtR7PllqkY--19" target="KMdQFLrVWxtR7PllqkY--20">
          <mxGeometry relative="1" as="geometry">
            <Array as="points" />
          </mxGeometry>
        </mxCell>
        <mxCell id="KMdQFLrVWxtR7PllqkY--51" value="是" style="curved=1;startArrow=none;endArrow=block;exitX=0;exitY=0.95;entryX=0.5;entryY=0;rounded=0;" edge="1" parent="1" source="KMdQFLrVWxtR7PllqkY--20" target="KMdQFLrVWxtR7PllqkY--21">
          <mxGeometry relative="1" as="geometry">
            <Array as="points">
              <mxPoint x="102" y="2206" />
            </Array>
          </mxGeometry>
        </mxCell>
        <mxCell id="KMdQFLrVWxtR7PllqkY--52" value="否" style="curved=1;startArrow=none;endArrow=block;exitX=1;exitY=0.95;entryX=0.5;entryY=0;rounded=0;" edge="1" parent="1" source="KMdQFLrVWxtR7PllqkY--20" target="KMdQFLrVWxtR7PllqkY--22">
          <mxGeometry relative="1" as="geometry">
            <Array as="points">
              <mxPoint x="312" y="2206" />
            </Array>
          </mxGeometry>
        </mxCell>
        <mxCell id="KMdQFLrVWxtR7PllqkY--53" value="" style="curved=1;startArrow=none;endArrow=block;exitX=0.5;exitY=1;entryX=0.11;entryY=0;rounded=0;" edge="1" parent="1" source="KMdQFLrVWxtR7PllqkY--21" target="KMdQFLrVWxtR7PllqkY--23">
          <mxGeometry relative="1" as="geometry">
            <Array as="points">
              <mxPoint x="102" y="2322" />
            </Array>
          </mxGeometry>
        </mxCell>
        <mxCell id="KMdQFLrVWxtR7PllqkY--54" value="" style="curved=1;startArrow=none;endArrow=block;exitX=0.5;exitY=1;entryX=0.89;entryY=0;rounded=0;" edge="1" parent="1" source="KMdQFLrVWxtR7PllqkY--22" target="KMdQFLrVWxtR7PllqkY--23">
          <mxGeometry relative="1" as="geometry">
            <Array as="points">
              <mxPoint x="312" y="2322" />
            </Array>
          </mxGeometry>
        </mxCell>
        <mxCell id="KMdQFLrVWxtR7PllqkY--55" value="" style="curved=1;startArrow=none;endArrow=block;exitX=0.5;exitY=1;entryX=0.5;entryY=0;rounded=0;" edge="1" parent="1" source="KMdQFLrVWxtR7PllqkY--23" target="KMdQFLrVWxtR7PllqkY--24">
          <mxGeometry relative="1" as="geometry">
            <Array as="points" />
          </mxGeometry>
        </mxCell>
        <mxCell id="KMdQFLrVWxtR7PllqkY--56" value="是" style="curved=1;startArrow=none;endArrow=block;exitX=0;exitY=0.96;entryX=0.5;entryY=0;rounded=0;" edge="1" parent="1" source="KMdQFLrVWxtR7PllqkY--24" target="KMdQFLrVWxtR7PllqkY--25">
          <mxGeometry relative="1" as="geometry">
            <Array as="points">
              <mxPoint x="104" y="2605" />
            </Array>
          </mxGeometry>
        </mxCell>
        <mxCell id="KMdQFLrVWxtR7PllqkY--57" value="否" style="curved=1;startArrow=none;endArrow=block;exitX=1;exitY=0.96;entryX=0.5;entryY=0;rounded=0;" edge="1" parent="1" source="KMdQFLrVWxtR7PllqkY--24" target="KMdQFLrVWxtR7PllqkY--26">
          <mxGeometry relative="1" as="geometry">
            <Array as="points">
              <mxPoint x="310" y="2605" />
            </Array>
          </mxGeometry>
        </mxCell>
        <mxCell id="KMdQFLrVWxtR7PllqkY--58" value="" style="curved=1;startArrow=none;endArrow=block;exitX=0.5;exitY=1;entryX=0.07;entryY=0;rounded=0;" edge="1" parent="1" source="KMdQFLrVWxtR7PllqkY--25" target="KMdQFLrVWxtR7PllqkY--27">
          <mxGeometry relative="1" as="geometry">
            <Array as="points">
              <mxPoint x="104" y="2721" />
            </Array>
          </mxGeometry>
        </mxCell>
        <mxCell id="KMdQFLrVWxtR7PllqkY--59" value="" style="curved=1;startArrow=none;endArrow=block;exitX=0.5;exitY=1;entryX=0.93;entryY=0;rounded=0;" edge="1" parent="1" source="KMdQFLrVWxtR7PllqkY--26" target="KMdQFLrVWxtR7PllqkY--27">
          <mxGeometry relative="1" as="geometry">
            <Array as="points">
              <mxPoint x="310" y="2721" />
            </Array>
          </mxGeometry>
        </mxCell>
        <mxCell id="KMdQFLrVWxtR7PllqkY--60" value="" style="curved=1;startArrow=none;endArrow=block;exitX=0.5;exitY=1;entryX=0.5;entryY=0;rounded=0;" edge="1" parent="1" source="KMdQFLrVWxtR7PllqkY--27" target="KMdQFLrVWxtR7PllqkY--28">
          <mxGeometry relative="1" as="geometry">
            <Array as="points" />
          </mxGeometry>
        </mxCell>
        <mxCell id="KMdQFLrVWxtR7PllqkY--61" value="" style="curved=1;startArrow=none;endArrow=block;exitX=0.5;exitY=1;entryX=0.5;entryY=0;rounded=0;" edge="1" parent="1" source="KMdQFLrVWxtR7PllqkY--28" target="KMdQFLrVWxtR7PllqkY--29">
          <mxGeometry relative="1" as="geometry">
            <Array as="points" />
          </mxGeometry>
        </mxCell>
      </root>
    </mxGraphModel>
  </diagram>
</mxfile>
